<svg xmlns="http://www.w3.org/2000/svg" viewBox="0 0 128 128" width="128" height="128">
  <!-- Same as compyle-code.svg — canonical 128px source -->
  <defs>
    <linearGradient id="bg128" x1="0%" y1="0%" x2="100%" y2="100%">
      <stop offset="0%" style="stop-color:#1e1e3f;stop-opacity:1" />
      <stop offset="100%" style="stop-color:#2d2b55;stop-opacity:1" />
    </linearGradient>
    <linearGradient id="acc128" x1="0%" y1="0%" x2="100%" y2="100%">
      <stop offset="0%" style="stop-color:#7c6af7;stop-opacity:1" />
      <stop offset="100%" style="stop-color:#56d9cc;stop-opacity:1" />
    </linearGradient>
  </defs>
  <rect width="128" height="128" rx="24" ry="24" fill="url(#bg128)" />
  <path d="M76 34 C56 34 42 48 42 64 C42 80 56 94 76 94 C83 94 89 92 94 88 L86 78 C83 81 80 83 76 83 C63 83 54 75 54 64 C54 53 63 45 76 45 C80 45 83 47 86 50 L94 40 C89 36 83 34 76 34 Z" fill="url(#acc128)" />
  <rect x="78" y="88" width="18" height="5" rx="2" fill="url(#acc128)" opacity="0.8" />
</svg>
