<svg xmlns="http://www.w3.org/2000/svg" viewBox="0 0 32 32" width="32" height="32">
  <defs>
    <linearGradient id="bg32" x1="0%" y1="0%" x2="100%" y2="100%">
      <stop offset="0%" style="stop-color:#1e1e3f;stop-opacity:1" />
      <stop offset="100%" style="stop-color:#2d2b55;stop-opacity:1" />
    </linearGradient>
  </defs>
  <rect width="32" height="32" rx="6" fill="url(#bg32)" />
  <path d="M19 7 C14 7 10 11 10 16 C10 21 14 25 19 25 C21 25 22.5 24.5 23.5 23.5 L21.5 21 C21 21.5 20 22 19 22 C16 22 13.5 19.5 13.5 16 C13.5 12.5 16 10 19 10 C20 10 21 10.5 21.5 11 L23.5 8.5 C22.5 7.5 21 7 19 7 Z" fill="#7c6af7" />
  <rect x="19" y="22" width="5" height="2" rx="1" fill="#56d9cc" />
</svg>
